<svg xmlns:xlink="http://www.w3.org/1999/xlink" xmlns="http://www.w3.org/2000/svg" viewBox="0 0 409.972972972973 88" preserveAspectRatio="xMidYMid meet" class="css-1r4bsbq" id="deeaahdf" width="409.972972972973"  height="88" ><defs id="SvgjsDefs6420"></defs><g id="SvgjsG6421" featurekey="symbolGroupContainer" transform="matrix(1,0,0,1,0,0)" fill="#FF1744"><rect xmlns="http://www.w3.org/2000/svg" width="92" height="88" rx="10" ry="10" fill="#FF1744"></rect></g><g id="SvgjsG6422" featurekey="symbolFeature-0" transform="matrix(0.40645446211427116,0,0,0.40645446211427116,20.00088359160079,17.886436874530826)" fill="#FFFFFF"><g xmlns="http://www.w3.org/2000/svg" fill="#FFFFFF"><path d="M120.8,19.7C115.2,10.9,103.1,5.2,90,5.2c-9.5,0-18.7,3-26,8.4c-7.3-5.5-16.4-8.4-26-8.4c-13.1,0-25.2,5.7-30.9,14.6   C0.5,30.2-1.5,41.5,1.1,53.3c2.1,9.6,7.3,19.5,15.5,29.6c14.2,17.6,34,31.3,42.4,37.2c0.8,0.6,1.6,1.1,2.2,1.5   c0.2,0.3,0.5,0.5,0.8,0.7c0.6,0.4,1.3,0.6,2,0.6c0.8,0,1.5-0.2,2.2-0.7c0.7-0.5,1.6-1.2,2.8-1.9c8.4-5.9,28.2-19.6,42.4-37.2   c8.2-10.1,13.4-20.1,15.5-29.6C129.5,41.5,127.5,30.2,120.8,19.7z M81.8,39.3c0,0,0,0.1,0,0.1v38.3H46.2V39.5c0-0.3,0-0.6-0.1-0.8   l17.4-15.2L81.8,39.3z M64.7,114c-0.2,0.1-0.4,0.3-0.6,0.4c-0.3-0.2-0.5-0.4-0.8-0.5C14,79.6-2.8,49.3,13.5,23.7   C17.7,17,27.4,12.7,38,12.7c7.2,0,14.1,2,19.8,5.8L27.6,44.9c-1.6,1.4-1.7,3.7-0.4,5.3C28,51,29,51.4,30,51.4   c0.9,0,1.7-0.3,2.5-0.9l6.3-5.5v36.5c0,2.1,1.7,3.7,3.7,3.7h43.1c2.1,0,3.7-1.7,3.7-3.7V45.9l6.3,5.5c0.7,0.6,1.6,0.9,2.5,0.9   c1,0,2.1-0.4,2.8-1.3c1.4-1.6,1.2-3.9-0.4-5.3L69.6,18.8c5.8-4,12.9-6.1,20.3-6.1c10.6,0,20.3,4.4,24.6,11.1   C130.8,49.3,114,79.7,64.7,114z" fill="#FFFFFF"></path><rect x="66.1" y="49.5" width="8.4" height="8.4" fill="#FFFFFF"></rect><rect x="53.5" y="62.1" width="8.4" height="8.4" fill="#FFFFFF"></rect><rect x="66.1" y="62.1" width="8.4" height="8.4" fill="#FFFFFF"></rect><rect x="53.5" y="49.5" width="8.4" height="8.4" fill="#FFFFFF"></rect></g></g><g id="SvgjsG6423" featurekey="nameFeature-0" transform="matrix(1.7761859539068137,0,0,1.7761859539068137,109.58438771249179,-1.1828069470712457)" fill="#FF1744"><path d="M12.36 40.56 c-6.48 0 -11 -4.28 -11 -10.68 c0 -6.04 4.24 -10.68 10.6 -10.68 c6.64 0 10.44 4.6 10.44 10.4 c0 0.64 0 1.24 -0.12 1.88 l-15.72 0 c0.36 2.6 2.2 4.6 5.88 4.6 c2.56 0 4.12 -1.16 4.92 -2.68 l4.76 1.4 c-1.16 2.64 -4.44 5.76 -9.76 5.76 z M6.56 28.16 l10.68 0 c-0.24 -2.48 -2.16 -4.48 -5.32 -4.48 c-3.08 0 -5.08 2.16 -5.36 4.48 z M35.16 40.56 c-5.6 0 -10 -4.56 -10 -10.68 c0 -6.16 4.4 -10.68 10 -10.68 c2.84 0 5.08 1.16 6.52 3 l0 -2.44 l5.32 0 l0 20.24 l-5.32 0 l0 -2.48 c-1.44 1.84 -3.68 3.04 -6.52 3.04 z M36.08 35.84 c3.2 0 5.76 -2.48 5.76 -6 c0 -3.48 -2.56 -5.92 -5.76 -5.92 c-3.32 0 -5.68 2.44 -5.68 5.92 c0 3.52 2.36 6 5.68 6 z M60.160000000000004 40.56 c-5 0 -8.84 -2.96 -9.84 -6.24 l4.76 -1.4 c0.68 1.92 2.6 3.36 5.28 3.36 c2.04 0 3.36 -0.96 3.36 -2.08 c0 -1 -0.76 -1.56 -2.24 -2 l-5.16 -1.52 c-2.88 -0.84 -5 -2.52 -5 -5.4 c0 -3.4 3.68 -6.08 8.12 -6.08 c4.36 0 7.68 2.08 8.96 5.12 l-4.68 1.36 c-0.72 -1.28 -2.2 -2.36 -4.32 -2.36 c-1.64 0 -2.88 0.88 -2.88 1.84 c0 0.8 0.56 1.28 1.68 1.6 l5.04 1.44 c3.04 0.88 5.68 2.12 5.68 5.76 c0 3.8 -3.6 6.6 -8.76 6.6 z M82.72 40.56 c-6.48 0 -11 -4.28 -11 -10.68 c0 -6.04 4.24 -10.68 10.6 -10.68 c6.64 0 10.44 4.6 10.44 10.4 c0 0.64 0 1.24 -0.12 1.88 l-15.72 0 c0.36 2.6 2.2 4.6 5.88 4.6 c2.56 0 4.12 -1.16 4.92 -2.68 l4.76 1.4 c-1.16 2.64 -4.44 5.76 -9.76 5.76 z M76.92 28.16 l10.68 0 c-0.24 -2.48 -2.16 -4.48 -5.32 -4.48 c-3.08 0 -5.08 2.16 -5.36 4.48 z M108.6 19.2 c5.6 0 9.96 4.52 9.96 10.68 c0 6.12 -4.36 10.68 -9.96 10.68 c-2.88 0 -5.08 -1.2 -6.56 -3.04 l0 2.48 l-5.28 0 l0 -29.2 l5.28 0 l0 11.4 c1.48 -1.84 3.68 -3 6.56 -3 z M107.67999999999999 35.84 c3.32 0 5.68 -2.48 5.68 -6 c0 -3.48 -2.36 -5.92 -5.68 -5.92 c-3.2 0 -5.76 2.44 -5.76 5.92 c0 3.52 2.56 6 5.76 6 z M134.35999999999999 19.2 c5.28 0 7.96 3.56 7.96 8.96 l0 11.84 l-5.28 0 l0 -10.84 c0 -3.08 -1.4 -5.04 -4.32 -5.04 c-2.96 0 -4.88 2.32 -4.88 5.88 l0 10 l-5.28 0 l0 -20.24 l5.28 0 l0 2.56 c1.4 -1.8 3.6 -3.12 6.52 -3.12 z M159.16 19.2 c5.6 0 9.96 4.52 9.96 10.68 c0 6.12 -4.36 10.68 -9.96 10.68 c-2.88 0 -5.08 -1.2 -6.56 -3.04 l0 2.48 l-5.28 0 l0 -29.2 l5.28 0 l0 11.4 c1.48 -1.84 3.68 -3 6.56 -3 z M158.24 35.84 c3.32 0 5.68 -2.48 5.68 -6 c0 -3.48 -2.36 -5.92 -5.68 -5.92 c-3.2 0 -5.76 2.44 -5.76 5.92 c0 3.52 2.56 6 5.76 6 z" fill="#FF1744"></path></g></svg>