<svg xmlns:xlink="http://www.w3.org/1999/xlink" xmlns="http://www.w3.org/2000/svg" class="css-ze2te4 css-qd6ojx" viewBox="0 0 92.10526315789473 84.69227779443403" width="110"  height="101" ><g transform="translate(-0.0015642530731680652, -3.7417146240363355) scale(0.7195605310156952)" class="css-1i4cq8i" fill="#FF1744"><g xmlns="http://www.w3.org/2000/svg" fill="#FF1744"><path d="M120.8,19.7C115.2,10.9,103.1,5.2,90,5.2c-9.5,0-18.7,3-26,8.4c-7.3-5.5-16.4-8.4-26-8.4c-13.1,0-25.2,5.7-30.9,14.6   C0.5,30.2-1.5,41.5,1.1,53.3c2.1,9.6,7.3,19.5,15.5,29.6c14.2,17.6,34,31.3,42.4,37.2c0.8,0.6,1.6,1.1,2.2,1.5   c0.2,0.3,0.5,0.5,0.8,0.7c0.6,0.4,1.3,0.6,2,0.6c0.8,0,1.5-0.2,2.2-0.7c0.7-0.5,1.6-1.2,2.8-1.9c8.4-5.9,28.2-19.6,42.4-37.2   c8.2-10.1,13.4-20.1,15.5-29.6C129.5,41.5,127.5,30.2,120.8,19.7z M81.8,39.3c0,0,0,0.1,0,0.1v38.3H46.2V39.5c0-0.3,0-0.6-0.1-0.8   l17.4-15.2L81.8,39.3z M64.7,114c-0.2,0.1-0.4,0.3-0.6,0.4c-0.3-0.2-0.5-0.4-0.8-0.5C14,79.6-2.8,49.3,13.5,23.7   C17.7,17,27.4,12.7,38,12.7c7.2,0,14.1,2,19.8,5.8L27.6,44.9c-1.6,1.4-1.7,3.7-0.4,5.3C28,51,29,51.4,30,51.4   c0.9,0,1.7-0.3,2.5-0.9l6.3-5.5v36.5c0,2.1,1.7,3.7,3.7,3.7h43.1c2.1,0,3.7-1.7,3.7-3.7V45.9l6.3,5.5c0.7,0.6,1.6,0.9,2.5,0.9   c1,0,2.1-0.4,2.8-1.3c1.4-1.6,1.2-3.9-0.4-5.3L69.6,18.8c5.8-4,12.9-6.1,20.3-6.1c10.6,0,20.3,4.4,24.6,11.1   C130.8,49.3,114,79.7,64.7,114z" fill="#FF1744"></path><rect x="66.1" y="49.5" width="8.4" height="8.4" fill="#FF1744"></rect><rect x="53.5" y="62.1" width="8.4" height="8.4" fill="#FF1744"></rect><rect x="66.1" y="62.1" width="8.4" height="8.4" fill="#FF1744"></rect><rect x="53.5" y="49.5" width="8.4" height="8.4" fill="#FF1744"></rect></g></g></svg>